<svg xmlns="http://www.w3.org/2000/svg" xmlns:xlink="http://www.w3.org/1999/xlink" version="1.1" x="0px" y="0px" viewBox="0 0 47.146 60.38875" enable-background="new 0 0 47.146 48.311" xml:space="preserve"><path d="M35.352,34.397c-0.292-3.193-2.78-16.995-2.88-17.497c0.003-0.075,0.012-0.739-0.408-1.173  c-0.132-0.136-0.308-0.214-0.504-0.269c-0.091-0.064-0.17-0.11-0.229-0.139c0.001,0,0.002,0,0.003,0.001v-0.176  c0.441-0.096,0.773-0.209,0.922-0.343c0.058-0.052,0.092-0.126,0.092-0.205c0.001-0.146,0.008-0.266,0.014-0.369  c0.016-0.259,0.027-0.463-0.085-0.685c0.234-0.354,0.276-0.958,0.182-1.367c0.01-0.015,0.031-0.019,0.037-0.036  c0.028-0.077,0.021-0.163-0.021-0.234c-0.657-1.145-3.88-2.028-5.01-2.306l0.674-5.438c0.007-0.054,0.003-0.109-0.013-0.161  c-0.038-0.132-0.958-3.232-2.957-3.392c-2.007-0.149-2.758,1.612-2.786,1.685c-0.016,0.038-0.025,0.078-0.028,0.119l-0.577,7.156  c-0.976,0.234-4.453,1.142-5.141,2.337c-0.041,0.071-0.048,0.157-0.02,0.234c0.006,0.017,0.027,0.021,0.036,0.036  c-0.093,0.408-0.052,1.013,0.183,1.367c-0.112,0.223-0.101,0.427-0.085,0.687c0.006,0.102,0.013,0.222,0.015,0.368  c0,0.078,0.034,0.152,0.092,0.204c0.148,0.134,0.48,0.248,0.922,0.343v0.196l0.082-0.055l-0.213,0.143  c-0.229,0.049-0.44,0.136-0.6,0.301c-0.417,0.431-0.411,1.088-0.402,1.088c-0.106,0.586-2.593,14.388-2.887,17.58  c-0.287,3.122,2.639,8.052,3.09,8.79l0.049,0.729c0.035,0.541,0.059,0.898,0.648,0.971c0.084,0.011,0.185,0.022,0.324,0.063  c0.41,0.466,1.584,0.667,2.145,0.677c0.376,0.323,1.371,0.394,2.165,0.394c0.129,0,0.261-0.002,0.394-0.007  c0.556,0.29,1.495,0.223,1.983,0.036c0.25,0.096,0.617,0.176,1.015,0.176c0.373,0,0.698-0.071,0.968-0.212  c0.133,0.005,0.265,0.007,0.394,0.007c0.794,0,1.788-0.07,2.164-0.394c0.562-0.01,1.735-0.211,2.144-0.677  c0.14-0.041,0.24-0.053,0.324-0.063c0.59-0.072,0.614-0.43,0.65-0.971l0.048-0.729C32.714,42.447,35.64,37.519,35.352,34.397z   M23.146,2.546c0.116-0.236,0.69-1.24,1.958-1.138c1.162,0.093,1.978,1.938,2.228,2.738l-0.643,5.185  c-0.662,0.122-1.349,0.184-2.044,0.184c0,0,0,0-0.001,0c-0.918,0-1.649-0.109-2.045-0.184L23.146,2.546z M22.057,10.071  c0.45,0.104,0.887,0.155,1.315,0.18c0.366,0.038,0.791,0.066,1.272,0.066c0.001,0,0.001,0,0.001,0c0.47,0,0.934-0.032,1.392-0.085  c0.295-0.029,0.595-0.075,0.9-0.141c0.039-0.008,0.081-0.011,0.12-0.019c1.142,0.265,3.843,1.03,4.727,1.857  c-0.022,0.01-0.045,0.021-0.067,0.031c-0.114,0.053-0.225,0.104-0.365,0.151c-0.637,0.133-1.535,0.219-2.652,0.256  c-0.975,0.015-2.301,0.003-4.151-0.047c-1.846,0.05-3.171,0.062-4.145,0.047c-1.108-0.038-2-0.123-2.635-0.254  c-0.146-0.048-0.26-0.1-0.375-0.153c-0.022-0.01-0.044-0.021-0.067-0.031C18.21,11.102,20.918,10.335,22.057,10.071z M17.315,14.443  c-0.003-0.092-0.008-0.173-0.012-0.246c-0.018-0.306-0.018-0.369,0.097-0.509c0.05-0.061,0.067-0.143,0.055-0.221  s-0.061-0.149-0.127-0.192c-0.088-0.057-0.187-0.409-0.174-0.744c0.127,0.039,0.271,0.075,0.425,0.108  c0.439,0.149,1.121,0.259,2.813,0.285c0.435,0.015,0.898,0.023,1.399,0.023c1.444,0,2.649-0.064,2.732-0.071  c0.009,0,0.016,0,0.024,0c0.001,0,0.001,0,0.002,0c0.064,0.004,1.295,0.071,2.77,0.071c0.538,0,1.038-0.009,1.499-0.026  c1.626-0.029,2.283-0.137,2.712-0.282c0.154-0.034,0.298-0.069,0.426-0.109c0.013,0.336-0.086,0.688-0.175,0.744  c-0.069,0.042-0.117,0.111-0.131,0.19s0.008,0.161,0.059,0.224c0.115,0.14,0.115,0.202,0.098,0.508  c-0.004,0.073-0.009,0.154-0.012,0.247c-0.545,0.256-2.874,0.539-5.337,0.539h-0.001c-0.709,0-1.357-0.026-1.927-0.074  c-0.519,0.048-1.168,0.074-1.877,0.074C20.189,14.982,17.858,14.699,17.315,14.443z M31.011,15.316  c-0.026,0.024-0.729,0.602-6.455,0.602c-5.156,0-6.235-0.467-6.408-0.563v-0.139c1.258,0.219,3.125,0.321,4.505,0.321  c0.736,0,1.386-0.025,1.877-0.076c0.542,0.051,1.19,0.076,1.927,0.076c0.001,0,0,0,0.001,0c1.381,0,3.248-0.103,4.506-0.321v0.131  C30.994,15.33,31.008,15.319,31.011,15.316z M17.958,15.666c0.56,0.32,2.516,0.623,6.598,0.623c4.882,0,6.238-0.419,6.614-0.638  c0.086,0.044,0.238,0.137,0.424,0.314c-0.167,0.242-0.359,0.449-0.433,0.461c-0.009,0-0.016,0.008-0.024,0.009  c-0.013,0-0.022-0.01-0.035-0.008c-0.034,0.006-0.053,0.035-0.081,0.051c-0.001,0.001-0.001,0-0.002,0.001  c-0.001,0.001-0.006,0.003-0.007,0.005c-0.033,0.021-0.07,0.033-0.092,0.064c-0.216,0.149-0.671,0.353-0.971,0.287  c-0.039-0.007-0.083-0.003-0.121,0.016c-0.288,0.144-1.439,0.148-1.853,0.007c-0.036-0.012-0.075-0.014-0.111-0.002  c-0.543,0.158-1.126,0.193-1.792,0.118c-0.02-0.003-0.034-0.002-0.05,0c-0.081,0.013-0.157,0.033-0.243,0.056  c-0.202,0.055-0.453,0.123-1.007,0.123c-0.451,0-1.041-0.047-1.753-0.14c-0.008-0.001-0.016-0.001-0.023-0.001  c-0.015,0-0.029,0.002-0.044,0.005c-0.121,0.029-0.289,0.045-0.487,0.045c-0.477,0-1.009-0.089-1.266-0.212  c-0.042-0.02-0.089-0.024-0.132-0.01c-0.066,0.02-0.223,0.041-0.464,0.041c-0.501,0-0.978-0.085-1.161-0.208  c-0.038-0.026-0.083-0.039-0.129-0.03c-0.052,0.007-0.116,0.011-0.188,0.011c-0.333,0-0.75-0.082-0.928-0.265  c-0.032-0.033-0.075-0.053-0.121-0.056c-0.164-0.01-0.188-0.056-0.278-0.226l-0.026-0.048c-0.044-0.08-0.064-0.16-0.074-0.218  L17.958,15.666z M14.557,34.471c0.29-3.159,2.851-17.369,2.883-17.596c-0.002-0.065,0.015-0.291,0.104-0.466  c0.083,0.132,0.201,0.253,0.44,0.286c0.202,0.173,0.511,0.259,0.806,0.298c-0.24,1.54-2.535,16.31-2.499,18.773  c0.023,1.619,0.623,4.652,1.074,6.72C16.641,41.25,14.318,37.055,14.557,34.471z M17.708,44.004  c0.008,0.036,0.015,0.064,0.022,0.098c-0.005-0.001-0.011-0.002-0.016-0.003C17.712,44.068,17.71,44.037,17.708,44.004z   M18.491,44.442c-0.031-0.067-0.085-0.119-0.148-0.16c-0.263-1.111-1.465-6.298-1.497-8.524c-0.035-2.419,2.327-17.616,2.5-18.725  c0.412,0.201,1.109,0.216,1.257,0.216c0.063,0,0.151-0.002,0.244-0.008c-0.001,0.007-0.009,0.011-0.01,0.018  c-0.017,0.152-1.739,15.241-1.775,19.089c-0.031,3.214,0.604,7.188,0.824,8.462C19.248,44.774,18.639,44.558,18.491,44.442z   M22.178,45.218c-0.874,0-1.4-0.104-1.583-0.17c-0.016-0.032-0.036-0.062-0.06-0.091c-0.019-0.021-0.046-0.031-0.069-0.048  c-0.176-0.993-0.882-5.202-0.851-8.555c0.036-3.82,1.754-18.88,1.772-19.032c0.001-0.009-0.007-0.015-0.007-0.023  c0.344,0.088,0.765,0.131,1.083,0.131c0.092,0,0.177-0.004,0.258-0.011c0,0.003-0.004,0.005-0.004,0.009  c-0.006,0.147-0.558,14.771-0.738,17.983c-0.16,2.8,0.263,8.321,0.383,9.802C22.302,45.215,22.239,45.218,22.178,45.218z   M24.764,45.265c-0.064-0.039-0.136-0.059-0.208-0.059c-0.071,0-0.144,0.02-0.207,0.058c-0.146,0.089-1.026,0.233-1.422,0.023  c-0.104-1.253-0.555-6.992-0.392-9.844c0.181-3.218,0.732-17.847,0.738-17.994c0.001-0.015-0.013-0.025-0.015-0.04  c0.597,0.071,1.107,0.112,1.514,0.112c0.528,0,0.811-0.06,1.016-0.113c-0.002,0.015-0.016,0.025-0.015,0.041  c0.006,0.147,0.557,14.777,0.739,17.994c0.16,2.807-0.525,8.557-0.698,9.941C25.393,45.428,24.872,45.33,24.764,45.265z   M26.932,45.218c-0.155,0-0.315-0.004-0.476-0.011c-0.021,0.002-0.04,0.014-0.062,0.017c0.211-1.711,0.829-7.053,0.673-9.812  c-0.183-3.212-0.733-17.836-0.739-17.983c-0.001-0.032-0.022-0.051-0.031-0.079c0.492,0.032,0.95,0.007,1.379-0.085  c-0.002,0.021-0.02,0.037-0.017,0.059c0.017,0.151,1.734,15.211,1.771,19.032c0.032,3.306-1.728,7.764-2.18,8.854  C27.145,45.212,27.049,45.218,26.932,45.218z M28.733,44.852c-0.061,0.022-0.116,0.057-0.16,0.105  c-0.023,0.028-0.044,0.059-0.059,0.091c-0.104,0.038-0.327,0.085-0.648,0.121c0.583-1.429,2.149-5.578,2.118-8.82  c-0.036-3.803-1.715-18.572-1.771-19.068c0.214,0.035,0.453,0.059,0.722,0.059c0.161,0,0.493-0.01,0.773-0.069  c-0.002,0.022-0.02,0.041-0.016,0.064c0.025,0.159,2.544,15.925,2.508,18.423C32.168,37.98,29.297,43.74,28.733,44.852z   M30.821,44.249c-0.09,0.04-0.164,0.106-0.204,0.195c-0.137,0.104-0.659,0.293-1.235,0.354c0.826-1.644,3.342-6.825,3.373-9.032  c0.037-2.546-2.41-17.868-2.514-18.519c-0.003-0.018-0.021-0.026-0.026-0.043c0.241-0.029,0.493-0.118,0.7-0.223  c0.328,1.942,2.615,15.565,2.615,18.337C33.53,37.955,31.294,43.175,30.821,44.249z M33.098,39.908  c0.539-1.634,0.987-3.356,0.987-4.59c0-2.984-2.496-17.683-2.657-18.629c0.062-0.045,0.125-0.102,0.184-0.163  c0.047,0.151,0.062,0.318,0.065,0.432c0.025,0.143,2.587,14.353,2.876,17.512C34.697,36.03,33.906,38.177,33.098,39.908z"/><text x="0" y="63.311" fill="#000000" font-size="5px" font-weight="bold" font-family="'Helvetica Neue', Helvetica, Arial-Unicode, Arial, Sans-serif">Created by Maureen Placente</text><text x="0" y="68.311" fill="#000000" font-size="5px" font-weight="bold" font-family="'Helvetica Neue', Helvetica, Arial-Unicode, Arial, Sans-serif">from the Noun Project</text></svg>